<?xml version="1.0" encoding="UTF-8" standalone="no"?>
<svg
   xmlns:dc="http://purl.org/dc/elements/1.1/"
   xmlns:cc="http://creativecommons.org/ns#"
   xmlns:rdf="http://www.w3.org/1999/02/22-rdf-syntax-ns#"
   xmlns:svg="http://www.w3.org/2000/svg"
   xmlns="http://www.w3.org/2000/svg"
   xmlns:sodipodi="http://sodipodi.sourceforge.net/DTD/sodipodi-0.dtd"
   xmlns:inkscape="http://www.inkscape.org/namespaces/inkscape"
   viewBox="0 0 336.63528 336.47937"
   version="1.1"
   id="svg118"
   sodipodi:docname="tradeoff.svg"
   width="336.63528"
   height="336.47937"
   inkscape:version="1.0.1 (3bc2e813f5, 2020-09-07)"
   inkscape:export-filename="C:\Users\hque1\Downloads\tradeoff.png"
   inkscape:export-xdpi="128"
   inkscape:export-ydpi="128">
  <metadata
     id="metadata122">
    <rdf:RDF>
      <cc:Work
         rdf:about="">
        <dc:format>image/svg+xml</dc:format>
        <dc:type
           rdf:resource="http://purl.org/dc/dcmitype/StillImage" />
        <dc:title></dc:title>
      </cc:Work>
    </rdf:RDF>
  </metadata>
  <sodipodi:namedview
     pagecolor="#ffffff"
     bordercolor="#666666"
     borderopacity="1"
     objecttolerance="10"
     gridtolerance="10"
     guidetolerance="10"
     inkscape:pageopacity="0"
     inkscape:pageshadow="2"
     inkscape:window-width="1920"
     inkscape:window-height="1017"
     id="namedview120"
     showgrid="false"
     fit-margin-top="1"
     fit-margin-left="1"
     fit-margin-right="1"
     fit-margin-bottom="1"
     inkscape:zoom="1.4166667"
     inkscape:cx="206.01627"
     inkscape:cy="216.96749"
     inkscape:window-x="-8"
     inkscape:window-y="-8"
     inkscape:window-maximized="1"
     inkscape:current-layer="svg118" />
  <defs
     id="defs11">
    <style
       id="style2">.cls-1{fill:#142240;}.cls-2{fill:url(#linear-gradient);}.cls-3{fill:#f2f2f2;opacity:0.05;}.cls-4{font-size:69px;}.cls-24,.cls-27,.cls-4{fill:#fa6149;}.cls-24,.cls-4{font-family:Oswald-SemiBold, Oswald;font-weight:600;}.cls-17,.cls-4{letter-spacing:0.01em;}.cls-5{letter-spacing:0.03em;}.cls-6{letter-spacing:0.02em;}.cls-7{letter-spacing:-0.02em;}.cls-8{letter-spacing:0.02em;}.cls-9{letter-spacing:-0.04em;}.cls-10{letter-spacing:0.02em;}.cls-11{letter-spacing:0.03em;}.cls-12{letter-spacing:0.02em;}.cls-13{letter-spacing:-0.02em;}.cls-14{letter-spacing:0.01em;}.cls-15{letter-spacing:0.01em;}.cls-16{letter-spacing:0.02em;}.cls-18{letter-spacing:0.02em;}.cls-19{letter-spacing:0.02em;}.cls-20{letter-spacing:0.02em;}.cls-21{letter-spacing:0em;}.cls-22{letter-spacing:0em;}.cls-23{letter-spacing:0.01em;}.cls-24{font-size:120px;letter-spacing:0.05em;}.cls-25{letter-spacing:0.04em;}.cls-26{letter-spacing:0.05em;}</style>
    <linearGradient
       id="linear-gradient"
       x1="438.53"
       y1="803"
       x2="438.53"
       y2="1189"
       gradientUnits="userSpaceOnUse">
      <stop
         offset="0"
         stop-color="#142240"
         id="stop4" />
      <stop
         offset="0.12"
         stop-color="#212e48"
         id="stop6" />
      <stop
         offset="0.24"
         stop-color="#26324b"
         id="stop8" />
    </linearGradient>
  </defs>
  <path
     class="cls-27"
     d="m 18.060734,203.51729 a 15.68,15.68 0 0 1 -15.5799996,-13.51 166.27,166.27 0 0 1 30.2799996,-119.880003 168,168 0 0 1 230.219996,-40.1 l 7.06,-9.76 a 5.06,5.06 0 0 1 7.07,-1.17 5.13,5.13 0 0 1 1.78,2.31 l 18.59,48.42 a 5.08,5.08 0 0 1 -3.09,6.47 5.21,5.21 0 0 1 -1.88,0.29 l -51.79,-2.54 a 5.06,5.06 0 0 1 -3.85,-8 l 7,-9.39 a 135.13,135.13 0 0 0 -184.669996,32.57 133.38,133.38 0 0 0 -10.14,16.660003 h 42.23 a 3.07,3.07 0 0 1 3.11,3 3.12,3.12 0 0 1 -0.41,1.55 24.06,24.06 0 0 0 -2.16,18.25 21.36,21.36 0 0 0 12.999996,12.83 39.8,39.8 0 0 0 33.08,-2.5 l 31.76,-17.77 a 2.2,2.2 0 0 1 2.77,0.51 l 66.39,81.09 8.21,9.9 a 13.52,13.52 0 0 1 -1.38,19.06 13.27,13.27 0 0 1 -18.29,-0.85 l -1.11,-1.09 a 0.31,0.31 0 0 0 -0.42,0.09 0.3,0.3 0 0 0 -0.06,0.18 13.5,13.5 0 0 1 -5.81,13.79 13.86,13.86 0 0 1 -17.13,-2 l -1,-1 a 0.3,0.3 0 0 0 -0.42,0.08 0.26,0.26 0 0 0 0,0.19 13.54,13.54 0 0 1 -5.81,13.79 13.86,13.86 0 0 1 -17.1,-1.9 l -1,-1 a 0.32,0.32 0 0 0 -0.43,0.09 0.37,0.37 0 0 0 -0.05,0.18 13.51,13.51 0 0 1 -20.94,13.52 l 1.28,-2.27 a 24.39,24.39 0 0 0 -3.42,-29.27 23.68,23.68 0 0 0 -12.94,-6.52 23.42,23.42 0 0 0 -13.68,-10.68 23.45,23.45 0 0 0 -16.42,-16.18 23.31,23.31 0 0 0 -9.33,-13.08 24.77,24.77 0 0 0 -32.099996,5.17 l -8.58,10.51 h -42.84 z m 76.19,-6.18 a 11.76,11.76 0 0 0 -15,3 l -8.92,11 a 11.29,11.29 0 0 0 1.58,15.88 l 0.22,0.16 1.35,1.09 a 11.26,11.26 0 0 0 12.63,0.87 0.54,0.54 0 0 1 0.81,0.58 11.34,11.34 0 0 0 4.13,11.08 l 1.11,0.88 a 11.37,11.37 0 0 0 12.199996,1.18 0.58,0.58 0 0 1 0.78,0.23 0.61,0.61 0 0 1 0.06,0.35 11.41,11.41 0 0 0 4.28,10.12 l 0.78,0.61 a 11.47,11.47 0 0 0 12.33,1.15 0.65,0.65 0 0 1 0.89,0.2 0.62,0.62 0 0 1 0.09,0.27 11.45,11.45 0 0 0 4.19,7.2 l 0.47,0.37 a 11.55,11.55 0 0 0 16.22,-2 11.11,11.11 0 0 0 0.95,-1.4 l 1.65,-2.94 a 11.93,11.93 0 0 0 -2,-14.8 11.51,11.51 0 0 0 -12.5,-2 0.34,0.34 0 0 1 -0.45,-0.17 0.3,0.3 0 0 1 0,-0.16 11.35,11.35 0 0 0 -15.51,-11.22 c -1.69,0.3 -1.32,-1.18 -1.32,-1.18 a 11.35,11.35 0 0 0 -15.999996,-14.26 c -1.28,0.17 -1.12,-1 -1.12,-1 a 11.29,11.29 0 0 0 -3.9,-15.09 z m 234.339996,-77.27 -1.11,-3.34 v 0 a 15.78,15.78 0 0 0 -15,-10.75 h -37.1 a 40.13,40.13 0 0 1 -14.26,-2.64 l -69.9,-26.800003 a 43.66,43.66 0 0 0 -42,6.05 l -43.92,33.350003 a 8.34,8.34 0 0 0 2.2,13.78 27.57,27.57 0 0 0 24.43,-1.21 l 37.36,-20.92 a 6.77,6.77 0 0 1 8.42,1.59 l 81.45,99 a 2.06,2.06 0 0 0 2.9,0.31 v 0 l 3.38,-2.81 a 9.46,9.46 0 0 1 6,-2.12 h 26.46 a 134.59,134.59 0 0 1 -211.179996,71.78 l 7.46,-9.26 a 5.06,5.06 0 0 0 -3.38,-8.24 l -51.59,-5.27 a 5.07,5.07 0 0 0 -5.33,6.77 l 15.91,49.36 a 5.07,5.07 0 0 0 8.75,1.32 l 7.57,-9.36 a 167.34,167.34 0 0 0 262.479996,-180.56 z"
     id="path102" />
</svg>
